<?xml version="1.0" encoding="UTF-8" standalone="no"?>
<!-- Creator: CorelDRAW 2017 -->

<svg
   xmlns:dc="http://purl.org/dc/elements/1.1/"
   xmlns:cc="http://creativecommons.org/ns#"
   xmlns:rdf="http://www.w3.org/1999/02/22-rdf-syntax-ns#"
   xmlns:svg="http://www.w3.org/2000/svg"
   xmlns="http://www.w3.org/2000/svg"
   xmlns:sodipodi="http://sodipodi.sourceforge.net/DTD/sodipodi-0.dtd"
   xmlns:inkscape="http://www.inkscape.org/namespaces/inkscape"
   xml:space="preserve"
   width="297mm"
   height="210mm"
   version="1.1"
   style="shape-rendering:geometricPrecision; text-rendering:geometricPrecision; image-rendering:optimizeQuality; fill-rule:evenodd; clip-rule:evenodd"
   viewBox="0 0 29700 21000"
   id="svg36"
   sodipodi:docname="namidiams (copy).svg"
   inkscape:version="0.92.4 (unknown)"><metadata
   id="metadata40"><rdf:RDF><cc:Work
       rdf:about=""><dc:format>image/svg+xml</dc:format><dc:type
         rdf:resource="http://purl.org/dc/dcmitype/StillImage" /></cc:Work></rdf:RDF></metadata><sodipodi:namedview
   pagecolor="#ffffff"
   bordercolor="#666666"
   borderopacity="1"
   objecttolerance="10"
   gridtolerance="10"
   guidetolerance="10"
   inkscape:pageopacity="0"
   inkscape:pageshadow="2"
   inkscape:window-width="1299"
   inkscape:window-height="713"
   id="namedview38"
   showgrid="false"
   inkscape:zoom="0.29734127"
   inkscape:cx="23.157614"
   inkscape:cy="396.85039"
   inkscape:window-x="67"
   inkscape:window-y="27"
   inkscape:window-maximized="1"
   inkscape:current-layer="svg36" />
 <defs
   id="defs7">
  <style
   type="text/css"
   id="style2">
   <![CDATA[
    .str1 {stroke:#FFCC29;stroke-width:20;stroke-miterlimit:22.9256}
    .str0 {stroke:#0098DA;stroke-width:20;stroke-miterlimit:22.9256}
    .fil0 {fill:none}
    .fil2 {fill:#FEFEFE}
    .fil4 {fill:#FFCC29}
    .fil1 {fill:#4BB052}
    .fil3 {fill:#3088C7}
    .fil5 {fill:#FEFEFE;fill-rule:nonzero}
    .fil6 {fill:#3088C7;fill-rule:nonzero}
   ]]>
  </style>
   <clipPath
   id="id0">
    <path
   d="M16815.46 13082.2c61.87,388.24 621.18,275.19 841.51,311.93 143.74,106.71 181.77,232.53 207.19,400.86 36.78,243.62 237,85.92 203.02,353.97 -32.07,252.93 -103.84,86.05 -50.64,473.21 36.17,263.13 109,248.08 183.26,378.29 61.42,331.19 -87.83,559.05 93.39,873.39 180,312.21 -56.39,675.44 505.44,590.84 388.52,-58.49 518.18,-153.17 872.55,-327.2 256.78,-126.06 460.06,420.06 704.46,411.22 248.96,-119.33 244.43,-617.39 325.22,-871.94 131.04,-412.93 410.5,-201.67 577.44,-621.79 146.09,-367.61 -10.62,-534.18 426.77,-734.5 659.67,-302.11 295.77,-234.04 651.77,-526.87 61.26,-50.4 647.79,-412.12 737.32,-458.06 433.73,-222.58 308.04,-292.63 546.07,-647.15 79.74,-118.75 230.97,-212.96 266.8,-339.49 29.01,-102.37 -24.15,-259.95 39.32,-330.55 96.94,-107.78 257.05,-42.1 287.95,-260.26 21.34,-150.64 -3.75,-315.92 67.93,-456.22 76.85,-150.43 224.94,-157.28 299.65,-308.24 79.32,-160.27 40.31,-341.39 97.91,-491.39 48.77,-126.94 448.12,-574.29 578.37,-618.18 439.87,-148.23 431.43,-330.87 365.43,-780.73 -63.88,-435.48 275.36,-555.61 17.93,-854.47 -82.16,-95.38 -662.47,-375.64 -793.45,-407.62 -564.89,-137.84 -1133.93,-423.8 -1596.76,-780.02 -185.14,-142.49 -641.16,147.54 -830.27,-252.15l342.18 -360.51 -24.46 -56.9 -533.94 32.57 -61.48 -509.67 -1382.71 -149.02 -33.4 -87.4 398.46 -476.28 59.25 45.62 22.74 -747.33c-258.01,42.41 -547.47,840.57 -1068.31,780.58 -132.98,-69.35 -193.62,-589.19 -694.66,-179.32 -258.29,211.32 -638.34,138.06 -896.94,-4.38 -110.95,-61.11 -333.47,-105.28 -390.59,-168.44 -239.11,-264.33 -58.82,-95.5 -364.42,-207.74 -308.89,-113.43 -508.55,-405.13 -809.95,-196.28 -330.42,228.97 -771.3,103.26 -871.86,192.14 -41.75,36.9 -366.98,626.4 -443.41,686.51 -96.52,75.92 -687.73,295.14 -733.11,253.9 -91.76,-83.38 -229.48,-191.45 -285.26,-298.4 -53.91,-103.35 -42.03,-366.09 -191.74,-226.72l-44.94 20.59 488.54 1113.9 54.45 -23.67c-139.42,164.68 -39.24,-250.06 -327.5,660.46 -41.26,130.3 -81.79,260.03 -126.05,388.5 -51.04,148.2 183.86,413.82 2.77,323.4l-633.53 1268.45 443.76 438.26c-110.84,224.91 -832.23,160.15 -228.7,786.18 128.31,1259.92 310.74,1091.23 106.56,2423.82 -8.82,57.59 -54.15,482.69 -50.47,489.27 100.3,179.63 349.82,41.74 516.08,45.32l-12.13 80.22 1363.15 205.97c105.31,15.9 239.3,11.02 312.58,-66.26l197.53 -208.28c68.36,-72.08 114,-59.02 222.14,-63.82l53.79 67.88z"
   id="path4" />
   </clipPath>
 
  
  
  
  
  
  
  
  
  
  
  
 </defs>
 <g
   id="g143"><path
     id="path64"
     d="m 17213.056,4451.2001 c -65.93,0.2382 -134.922,21.168 -210.272,73.3804 -330.42,228.9701 -771.273,103.2531 -871.833,192.133 -41.75,36.9001 -367.005,626.4113 -443.436,686.5215 -96.52,75.9198 -687.701,295.1263 -733.081,253.8862 -91.76,-83.38 -229.474,-191.4298 -285.254,-298.3796 -53.91,-103.3502 -42.061,-366.1262 -191.772,-226.7564 l -44.906,20.619 488.549,1113.8855 54.415,-23.6678 c -139.42,164.6799 -39.213,-250.0434 -327.474,660.4765 -41.259,130.2996 -81.83,260.0336 -126.09,388.5036 -51.04,148.2 183.88,413.811 2.79,323.391 l -633.501,1268.45 8.837,8.733 6158.642,-3736.9296 c -95.979,-155.1094 -226.339,-354.7372 -593.969,-54.0018 -258.29,211.3198 -638.348,138.0474 -896.948,-4.3926 -110.95,-61.11 -333.45,-105.3052 -390.57,-168.4652 -239.11,-264.3299 -58.822,-95.4993 -364.423,-207.7392 -231.667,-85.0725 -401.918,-270.3986 -599.704,-269.6475 z"
     style="clip-rule:evenodd;fill:#4bb052;fill-rule:evenodd;stroke-width:1.00000012;image-rendering:optimizeQuality;shape-rendering:geometricPrecision;text-rendering:geometricPrecision"
     inkscape:connector-curvature="0" /><path
     id="path12-3"
     d="m 20832.215,5771.1193 -6869.4,4168.1697 c 35.88,50.029 82.633,105.741 143.402,168.775 128.31,1259.92 310.737,1091.242 106.557,2423.832 -8.82,57.59 -54.116,482.692 -50.436,489.272 100.3,179.63 349.78,41.741 516.04,45.32 l -12.092,80.202 1363.121,205.983 c 105.31,15.9 239.31,11.03 312.591,-66.25 l 197.507,-208.307 c 68.36,-72.08 114.017,-59.021 222.157,-63.821 l 53.795,67.903 c 61.87,388.24 621.169,275.179 841.499,311.919 143.74,106.71 181.802,232.524 207.223,400.854 36.78,243.62 236.965,85.934 202.985,353.984 -32.07,252.93 -103.843,86.041 -50.643,473.201 36.17,263.13 109.036,248.113 183.296,378.324 61.42,331.189 -87.841,559.043 93.379,873.383 180,312.21 -56.383,675.417 505.447,590.817 388.52,-58.491 518.187,-153.186 872.557,-327.216 256.78,-126.06 460.053,420.081 704.453,411.241 248.96,-119.33 244.41,-617.386 325.2,-871.936 131.04,-412.93 410.492,-201.651 577.432,-621.771 146.09,-367.61 -10.594,-534.209 426.796,-734.529 659.67,-302.11 295.743,-234.011 651.743,-526.841 61.26,-50.4 647.79,-412.12 737.32,-458.06 433.729,-222.58 308.034,-292.624 546.064,-647.144 79.741,-118.75 230.976,-212.985 266.806,-339.514 29.01,-102.37 -24.144,-259.975 39.326,-330.574 96.94,-107.781 257.041,-42.083 287.941,-260.243 21.34,-150.64 -3.726,-315.9 67.954,-456.2 76.85,-150.43 224.91,-157.289 299.62,-308.25 79.32,-160.27 40.327,-341.391 97.927,-491.391 48.77,-126.94 448.113,-574.315 578.363,-618.205 439.871,-148.23 431.456,-330.867 365.456,-780.727 -63.88,-435.48 275.362,-555.61 17.932,-854.47 -82.16,-95.38 -662.461,-375.644 -793.441,-407.624 -564.89,-137.84 -1133.972,-423.784 -1596.802,-780.004 -185.14,-142.4905 -641.123,147.56 -830.233,-252.1298 l 342.15,-360.5464 -24.443,-56.8958 -533.921,32.6078 -61.495,-509.6846 z"
     style="clip-rule:evenodd;fill:#3088c7;fill-opacity:1;fill-rule:evenodd;stroke-width:1.00000012;image-rendering:optimizeQuality;shape-rendering:geometricPrecision;text-rendering:geometricPrecision"
     inkscape:connector-curvature="0" /><path
     class="fil0"
     d="m 16815.459,13082.201 c 61.871,388.24 621.181,275.19 841.511,311.93 143.739,106.71 181.77,232.53 207.189,400.86 36.78,243.62 237.001,85.92 203.021,353.97 -32.07,252.93 -103.84,86.05 -50.64,473.21 36.17,263.13 109,248.08 183.26,378.29 61.42,331.19 -87.83,559.051 93.39,873.39 180,312.211 -56.39,675.441 505.44,590.841 388.52,-58.49 518.18,-153.17 872.55,-327.2 256.78,-126.06 460.06,420.06 704.46,411.22 248.96,-119.33 244.43,-617.39 325.22,-871.94 131.04,-412.93 410.5,-201.67 577.44,-621.791 146.09,-367.61 -10.62,-534.18 426.77,-734.5 659.67,-302.11 295.77,-234.04 651.77,-526.87 61.26,-50.4 647.79,-412.12 737.32,-458.06 433.73,-222.58 308.04,-292.63 546.07,-647.15 79.74,-118.75 230.97,-212.96 266.8,-339.49 29.01,-102.37 -24.15,-259.95 39.32,-330.55 96.94,-107.78 257.05,-42.1 287.95,-260.26 21.34,-150.64 -3.75,-315.92 67.93,-456.22 76.85,-150.431 224.94,-157.28 299.65,-308.24 79.32,-160.271 40.311,-341.391 97.91,-491.39 48.77,-126.94 448.121,-574.291 578.37,-618.181 439.872,-148.23 431.432,-330.87 365.432,-780.73 -63.88,-435.48 275.36,-555.61 17.93,-854.47 -82.16,-95.38 -662.472,-375.64 -793.452,-407.62 -564.89,-137.84 -1133.93,-423.8 -1596.76,-780.02 -185.14,-142.4904 -641.16,147.54 -830.27,-252.1504 l 342.18,-360.51 -24.46,-56.9001 -533.94,32.5701 -61.48,-509.6701 -1382.71,-149.02 -33.4,-87.4 398.46,-476.2801 59.25,45.62 22.74,-747.33 c -258.01,42.41 -547.47,840.5701 -1068.31,780.58 -132.98,-69.35 -193.62,-589.19 -694.66,-179.32 -258.29,211.3201 -638.34,138.06 -896.94,-4.38 -110.95,-61.11 -333.47,-105.28 -390.59,-168.44 -239.11,-264.33 -58.82,-95.5 -364.42,-207.74 -308.891,-113.43 -508.55,-405.1301 -809.951,-196.28 -330.42,228.97 -771.3,103.26 -871.86,192.14 -41.75,36.9 -366.98,626.4001 -443.41,686.5101 -96.52,75.9199 -687.73,295.14 -733.11,253.8999 -91.76,-83.38 -229.48,-191.45 -285.26,-298.3999 -53.91,-103.35 -42.03,-366.0901 -191.74,-226.7201 l -44.939,20.59 488.539,1113.9001 54.45,-23.67 c -139.42,164.6801 -39.24,-250.06 -327.5,660.4601 -41.26,130.3004 -81.79,260.0304 -126.05,388.5004 -51.04,148.2 183.86,413.82 2.77,323.4 l -633.529,1268.45 443.76,438.26 c -110.84,224.91 -832.231,160.15 -228.7,786.18 128.31,1259.921 310.739,1091.231 106.559,2423.821 -8.819,57.59 -54.149,482.69 -50.469,489.27 100.299,179.63 349.819,41.74 516.079,45.32 l -12.13,80.22 1363.15,205.97 c 105.31,15.9 239.3,11.02 312.58,-66.26 l 197.53,-208.28 c 68.36,-72.08 114,-59.02 222.141,-63.82 z"
     id="path21-6"
     inkscape:connector-curvature="0"
     style="clip-rule:evenodd;fill:none;fill-rule:evenodd;stroke-width:1.00000012;image-rendering:optimizeQuality;shape-rendering:geometricPrecision;text-rendering:geometricPrecision" /><polygon
     class="fil4 str1"
     points="22773.19,10743.31 23632.71,10741.66 22936.37,11245.54 23203.55,12062.48 22509.15,11555.93 21814.75,12062.48 22081.93,11245.54 21385.59,10741.66 22245.12,10743.31 22509.15,9925.35 "
     id="polygon23-7"
     style="clip-rule:evenodd;fill:#ffcc29;fill-rule:evenodd;stroke:#ffcc29;stroke-width:20;stroke-miterlimit:22.92560005;image-rendering:optimizeQuality;shape-rendering:geometricPrecision;text-rendering:geometricPrecision"
     transform="translate(-0.002,-0.0012)" /><path
     class="fil5"
     d="m 14943.329,12685.291 v -2470.01 c 0,-305.751 92.5,-554.981 278.34,-749.391 185.86,-193.56 426.51,-290.34 722.84,-290.34 351.161,0 620.93,161.01 810.21,482.19 115.62,-173.87 239.811,-297.19 371.7,-370.85 132.751,-74.51 295.48,-111.34 489.901,-111.34 308.32,0 544.69,96.78 709.14,290.34 163.58,194.41 245.8,472.76 245.8,837.611 v 2381.79 h -1017.471 v -2229.35 c 0,-107.911 -8.559,-179.85 -26.549,-214.96 -17.99,-35.12 -53.96,-53.1 -108.77,-53.1 -101.92,0 -152.45,83.929 -152.45,250.939 v 2246.471 h -1017.461 v -2229.35 c 0,-106.19 -9.43,-178.14 -27.4,-214.111 -18.85,-35.969 -54.83,-53.949 -108.78,-53.949 -101.06,0 -151.59,89.069 -151.59,268.06 v 2229.35 z M 20796.32,9242.35 v 978.07 c -73.65,-21.409 -131.04,-32.539 -170.43,-32.539 -77.09,0 -143.89,28.259 -198.7,85.639 -55.66,56.53 -83.07,125.05 -83.07,205.55 0,68.521 29.97,155.021 90.78,260.36 l 77.94,135.321 c 141.31,244.09 211.54,479.609 211.54,707.43 0,332.3 -118.19,614.08 -355.43,844.47 -237.23,230.38 -526.72,346 -868.44,346 -164.44,0 -326.31,-38.54 -487.32,-114.77 v -991.76 c 96.78,62.52 183.28,94.21 258.65,94.21 89.07,0 162.72,-25.7 222.68,-76.23 59.09,-51.39 89.07,-115.63 89.07,-192.7 0,-49.68 -47.11,-159.3 -142.17,-328.02 -151.6,-268.07 -227.82,-535.29 -227.82,-803.36 0,-322.871 114.76,-601.231 345.15,-834.181 229.52,-233.81 504.45,-350.29 823.91,-350.29 140.45,0 278.34,22.27 413.66,66.8 z"
     id="path25-5"
     inkscape:connector-curvature="0"
     style="clip-rule:evenodd;fill:#fefefe;fill-rule:nonzero;stroke-width:1.00000012;image-rendering:optimizeQuality;shape-rendering:geometricPrecision;text-rendering:geometricPrecision" /><path
     id="path33-2"
     style="clip-rule:evenodd;fill:#3088c7;fill-rule:nonzero;stroke-width:1.00000012;image-rendering:optimizeQuality;shape-rendering:geometricPrecision;text-rendering:geometricPrecision"
     d="m 10798.789,6895.7296 c -327.93,0 -682.87,89.5604 -922.07,256.4804 l 246.91,525.17 c 142.75,-118.06 366.52,-191.34 567.13,-191.34 289.36,0 432.11,126.2 443.68,350.11 h -416.67 c -648.15,0 -929.79,252.41 -929.79,659.52 0,382.69 277.78,679.88 779.33,679.88 304.79,0 513.12,-109.92 617.29,-321.62 v 284.98 h 682.87 v -1225.4 c 0,-700.24 -389.66,-1017.7804 -1068.68,-1017.7804 z m -27,1791.2904 c -173.61,0 -273.92,-93.64 -273.92,-223.91 0,-134.35 84.87,-223.92 320.21,-223.92 h 316.36 v 191.35 c -57.87,175.05 -200.62,256.48 -362.65,256.48 z m 2096.49,1797.82 c -327.93,0 -682.87,89.561 -922.07,256.481 l 246.91,525.169 c 142.75,-118.06 366.52,-191.34 567.13,-191.34 289.36,0 432.111,126.201 443.68,350.111 h -416.67 c -648.15,0 -929.79,252.41 -929.79,659.52 0,382.69 277.78,679.88 779.33,679.88 304.79,0 513.12,-109.92 617.29,-321.62 v 284.98 h 682.87 v -1225.4 c 0,-700.24 -389.66,-1017.781 -1068.68,-1017.781 z m -27,1791.291 c -173.61,0 -273.92,-93.64 -273.92,-223.91 0,-134.35 84.87,-223.92 320.21,-223.92 h 316.36 v 191.35 c -57.87,175.05 -200.62,256.48 -362.65,256.48 z M 7392.559,9130.77 V 6722.0296 c 0,-152.67 39.35,-274.12 118.06,-363.6901 78.71,-89.56 183.88,-134.34 314.83,-134.34 108.56,0 201.52,31.21 279.55,92.95 78.03,61.7501 164.88,180.4901 259.87,355.5501 l 374.55,675.8004 c 78.03,141.81 139.77,261.23 183.87,357.58 44.79,97.03 80.07,185.92 106.53,268.02 -15.6,-174.38 -27.82,-333.16 -36.64,-474.97 -8.82,-141.13 -12.89,-250.37 -12.89,-325.69 v -888.1805 h 683.95 V 8788.8 c 0,115.34 -32.57,208.3 -98.39,279.55 -65.82,71.24 -151.99,107.2 -259.87,107.2 -90.92,0 -168.95,-23.75 -233.41,-71.24 -64.46,-47.5 -134.35,-139.78 -209.66,-275.48 l -555.71,-1001.49 c -11.54,-21.72 -29.86,-53.61 -53.6,-97.71 -122.82,-221.2 -208.31,-399.65 -254.45,-536.71 26.46,189.99 46.14,362.33 58.35,517.71 12.9,156.06 19,301.94 19,438.32 v 981.82 z m -2921.941,3595.371 323.84,-2422.371 c 24.96,-196.149 86.3,-348.09 184.03,-455.079 97.72,-107.71 221.83,-161.211 373.77,-161.211 144.08,0 263.92,47.08 361.641,141.95 97.719,94.871 168.34,232.53 211.14,413.71 l 196.15,829.57 c 19.98,79.891 36.38,167.631 50.65,264.631 13.55,97.01 25.68,207.58 35.66,331.69 9.28,-124.11 21.4,-234.68 34.95,-331.69 14.27,-97 30.68,-184.74 50.65,-264.631 l 196.16,-829.57 c 43.51,-181.18 113.41,-318.839 211.13,-413.71 97.73,-94.87 218.99,-141.95 363.79,-141.95 151.93,0 276.04,53.501 373.05,161.211 96.3,106.989 157.64,258.93 182.61,455.079 l 325.97,2422.371 h -714.72 l -166.91,-1870.27 c -8.56,-97.721 -16.41,-192.591 -23.54,-285.32 -6.42,-92.731 -12.13,-181.891 -16.41,-266.781 -23.54,125.54 -43.51,229.691 -59.2,311.721 -16.41,82.019 -32.1,155.489 -47.08,218.98 l -311.71,1455.13 c -36.38,165.49 -84.89,284.61 -146.94,355.22 -62.06,71.33 -146.23,107 -251.8,107 -104.85,0 -188.31,-35.67 -250.37,-107 -61.34,-70.61 -110.56,-189.73 -146.94,-355.22 l -313.131,-1455.13 c -18.55,-87.74 -52.07,-253.941 -100.58,-499.31 l -6.42,-31.391 c 0,139.81 -9.99,307.44 -29.24,503.591 -2.86,22.829 -4.28,38.52 -4.28,48.51 l -166.92,1870.27 z m 3520.361,0 V 10607.64 h 676.21 v 2118.501 z m 950.12,-3128.531 -653.39,774.64 h -296.73 l 411.57,-774.64 z m 1946.11,136.95 v 1759.001 c 0,192.59 -7.14,332.4 -22.12,419.42 -14.26,87.02 -38.51,167.62 -72.04,241.09 -86.31,188.31 -215.42,337.39 -388.75,446.53 -172.62,109.13 -365.21,164.06 -578.48,164.06 -309.58,0 -564.22,-102.72 -764.66,-308.15 -200.44,-206.14 -301.01,-468.64 -301.01,-787.48 0,-318.13 100.57,-579.911 301.01,-786.06 200.44,-206.14 455.8,-309.571 765.37,-309.571 41.37,0 87.02,2.851 135.53,8.56 49.21,5.71 100.57,13.551 154.78,24.971 v 694.75 c -55.64,-17.83 -105.57,-31.39 -149.79,-39.23 -44.23,-8.56 -82.74,-12.84 -116.27,-12.84 -126.97,0 -226.83,37.8 -300.3,112.7 -73.47,74.9 -109.85,177.61 -109.85,306.72 0,129.11 34.96,231.82 105.57,306.72 69.91,74.89 164.77,112.7 283.18,112.7 127.68,0 225.4,-40.66 293.17,-121.26 67.76,-80.6 101.29,-196.87 101.29,-348.09 V 9734.56 Z m 110.07,300.3 c 0,-107 37.81,-198.3 114.13,-273.19 76.32,-74.9 167.63,-112.71 275.33,-112.71 107.71,0 199.02,37.81 275.34,112.71 76.32,74.89 114.13,166.19 114.13,273.19 0,107.71 -37.81,199.01 -114.13,274.62 -76.32,76.321 -167.63,114.131 -275.34,114.131 -107.7,0 -199.01,-37.81 -275.33,-114.131 -76.32,-75.61 -114.13,-166.91 -114.13,-274.62 z m 51.36,2691.281 V 10607.64 h 676.21 v 2118.501 z"
     inkscape:connector-curvature="0" /><rect
     class="fil0"
     width="29700"
     height="21000"
     id="rect10"
     x="0"
     y="0"
     style="fill:none" /></g>
</svg>