<?xml version="1.0" encoding="UTF-8" standalone="no"?>
<!-- Creator: CorelDRAW 2017 -->

<svg
   xmlns:dc="http://purl.org/dc/elements/1.1/"
   xmlns:cc="http://creativecommons.org/ns#"
   xmlns:rdf="http://www.w3.org/1999/02/22-rdf-syntax-ns#"
   xmlns:svg="http://www.w3.org/2000/svg"
   xmlns="http://www.w3.org/2000/svg"
   xmlns:sodipodi="http://sodipodi.sourceforge.net/DTD/sodipodi-0.dtd"
   xmlns:inkscape="http://www.inkscape.org/namespaces/inkscape"
   xml:space="preserve"
   width="297mm"
   height="168.77472mm"
   version="1.1"
   style="clip-rule:evenodd;fill-rule:evenodd;image-rendering:optimizeQuality;shape-rendering:geometricPrecision;text-rendering:geometricPrecision"
   viewBox="0 0 29700 16877.472"
   id="svg36"
   sodipodi:docname="namidiams old fixed.svg"
   inkscape:version="0.92.4 (unknown)"><metadata
   id="metadata40"><rdf:RDF><cc:Work
       rdf:about=""><dc:format>image/svg+xml</dc:format><dc:type
         rdf:resource="http://purl.org/dc/dcmitype/StillImage" /><dc:title></dc:title></cc:Work></rdf:RDF></metadata><sodipodi:namedview
   pagecolor="#ffffff"
   bordercolor="#666666"
   borderopacity="1"
   objecttolerance="10"
   gridtolerance="10"
   guidetolerance="10"
   inkscape:pageopacity="0"
   inkscape:pageshadow="2"
   inkscape:window-width="1287"
   inkscape:window-height="713"
   id="namedview38"
   showgrid="false"
   inkscape:object-paths="true"
   inkscape:snap-smooth-nodes="true"
   inkscape:zoom="0.42050407"
   inkscape:cx="422.77864"
   inkscape:cy="486.76388"
   inkscape:window-x="79"
   inkscape:window-y="27"
   inkscape:window-maximized="1"
   inkscape:current-layer="svg36"
   inkscape:snap-bbox="true"
   inkscape:bbox-nodes="true"
   inkscape:snap-page="true"
   fit-margin-top="0"
   fit-margin-left="0"
   fit-margin-right="0"
   fit-margin-bottom="0" />
 <defs
   id="defs7">
  <style
   type="text/css"
   id="style2">
   <![CDATA[
    .str1 {stroke:#FFCC29;stroke-width:20;stroke-miterlimit:22.9256}
    .str0 {stroke:#0098DA;stroke-width:20;stroke-miterlimit:22.9256}
    .fil0 {fill:none}
    .fil2 {fill:#FEFEFE}
    .fil4 {fill:#FFCC29}
    .fil1 {fill:#4BB052}
    .fil3 {fill:#3088C7}
    .fil5 {fill:#FEFEFE;fill-rule:nonzero}
    .fil6 {fill:#3088C7;fill-rule:nonzero}
   ]]>
  </style>
   <clipPath
   id="id0">
    <path
   d="m 16815.46,13082.2 c 61.87,388.24 621.18,275.19 841.51,311.93 143.74,106.71 181.77,232.53 207.19,400.86 36.78,243.62 237,85.92 203.02,353.97 -32.07,252.93 -103.84,86.05 -50.64,473.21 36.17,263.13 109,248.08 183.26,378.29 61.42,331.19 -87.83,559.05 93.39,873.39 180,312.21 -56.39,675.44 505.44,590.84 388.52,-58.49 518.18,-153.17 872.55,-327.2 256.78,-126.06 460.06,420.06 704.46,411.22 248.96,-119.33 244.43,-617.39 325.22,-871.94 131.04,-412.93 410.5,-201.67 577.44,-621.79 146.09,-367.61 -10.62,-534.18 426.77,-734.5 659.67,-302.11 295.77,-234.04 651.77,-526.87 61.26,-50.4 647.79,-412.12 737.32,-458.06 433.73,-222.58 308.04,-292.63 546.07,-647.15 79.74,-118.75 230.97,-212.96 266.8,-339.49 29.01,-102.37 -24.15,-259.95 39.32,-330.55 96.94,-107.78 257.05,-42.1 287.95,-260.26 21.34,-150.64 -3.75,-315.92 67.93,-456.22 76.85,-150.43 224.94,-157.28 299.65,-308.24 79.32,-160.27 40.31,-341.39 97.91,-491.39 48.77,-126.94 448.12,-574.29 578.37,-618.18 439.87,-148.23 431.43,-330.87 365.43,-780.73 -63.88,-435.48 275.36,-555.61 17.93,-854.47 -82.16,-95.38 -662.47,-375.64 -793.45,-407.62 -564.89,-137.84 -1133.93,-423.8 -1596.76,-780.02 -185.14,-142.49 -641.16,147.54 -830.27,-252.15 l 342.18,-360.51 -24.46,-56.9 -533.94,32.57 -61.48,-509.67 -1382.71,-149.02 -33.4,-87.4 398.46,-476.28 59.25,45.62 22.74,-747.33 c -258.01,42.41 -547.47,840.57 -1068.31,780.58 -132.98,-69.35 -193.62,-589.19 -694.66,-179.32 -258.29,211.32 -638.34,138.06 -896.94,-4.38 -110.95,-61.11 -333.47,-105.28 -390.59,-168.44 -239.11,-264.33 -58.82,-95.5 -364.42,-207.74 -308.89,-113.43 -508.55,-405.13 -809.95,-196.28 -330.42,228.97 -771.3,103.26 -871.86,192.14 -41.75,36.9 -366.98,626.4 -443.41,686.51 -96.52,75.92 -687.73,295.14 -733.11,253.9 -91.76,-83.38 -229.48,-191.45 -285.26,-298.4 -53.91,-103.35 -42.03,-366.09 -191.74,-226.72 l -44.94,20.59 488.54,1113.9 54.45,-23.67 c -139.42,164.68 -39.24,-250.06 -327.5,660.46 -41.26,130.3 -81.79,260.03 -126.05,388.5 -51.04,148.2 183.86,413.82 2.77,323.4 l -633.53,1268.45 443.76,438.26 c -110.84,224.91 -832.23,160.15 -228.7,786.18 128.31,1259.92 310.74,1091.23 106.56,2423.82 -8.82,57.59 -54.15,482.69 -50.47,489.27 100.3,179.63 349.82,41.74 516.08,45.32 l -12.13,80.22 1363.15,205.97 c 105.31,15.9 239.3,11.02 312.58,-66.26 l 197.53,-208.28 c 68.36,-72.08 114,-59.02 222.14,-63.82 z"
   id="path4"
   inkscape:connector-curvature="0" />
   </clipPath>
 
  
  
  
  
  
  
  
  
  
  
  
 
   
  
    
    
   </defs>
 <rect
   style="fill:none"
   y="-4122.5283"
   x="5.4012376e-05"
   id="rect10"
   height="21000"
   width="29700"
   class="fil0" /><g
   id="g25"
   transform="matrix(1.3951025,0,0,1.3951025,-6236.9732,-6209.8234)"><path
     sodipodi:nodetypes="cccccccccccccccccccccc"
     inkscape:connector-curvature="0"
     id="path12-7"
     d="m 17213.104,4451.1615 c -65.928,0.2382 -134.921,21.168 -210.271,73.3804 -330.42,228.9701 -771.273,103.3047 -871.833,192.1848 -41.75,36.8999 -367.005,626.3595 -443.435,686.4697 -96.52,75.9201 -687.755,295.1781 -733.134,253.9378 -91.76,-83.38 -229.473,-191.4813 -285.255,-298.4312 -53.909,-103.35 -42.008,-366.0746 -191.717,-226.7045 l -44.961,20.5671 488.551,1113.9371 54.467,-23.6678 c -139.42,164.6801 -39.267,-250.0953 -327.525,660.4244 -41.262,130.301 -81.78,260.034 -126.04,388.504 -51.041,148.2 183.88,413.811 2.792,323.391 l -633.553,1268.45 8.834,8.733 6158.54,-3736.8261 6.666,10.2836 c -96.642,-156.2495 -224.7,-371.7912 -600.48,-64.3888 -258.29,211.3201 -638.348,138.0477 -896.948,-4.3926 -110.95,-61.11 -333.502,-105.2534 -390.622,-168.4134 -239.11,-264.3301 -58.77,-95.4992 -364.37,-207.7392 -231.668,-85.0725 -401.919,-270.4504 -599.706,-269.6993 z"
     style="clip-rule:evenodd;fill:#4bb052;fill-rule:evenodd;stroke-width:1.00000012;image-rendering:optimizeQuality;shape-rendering:geometricPrecision;text-rendering:geometricPrecision" /><path
     sodipodi:nodetypes="cccccccccccccccccccccccccccccccc"
     inkscape:connector-curvature="0"
     transform="scale(26.458333)"
     id="path96"
     d="m 525.35352,336.08984 16.43945,16.23438 -2.50977,2.74609 -3.8164,2.1543 -4.26563,1.99805 -3.85547,2.27148 -1.50781,1.37695 -1.08398,1.60743 -0.55274,1.89453 0.0859,2.23437 0.83008,2.62891 1.68164,3.08008 0.91784,1.34387 257.69349,-157.75012 -1.26368,-3.30274 15.06055,-18.00195 2.23828,1.72461 0.85938,-28.2461 -1.84375,0.6211 -1.88282,1.19922 -3.92773,3.78515 -8.80859,10.59766 -5.0586,5.38281 -5.61328,4.48828 -3.04101,1.68555 -3.21289,1.19141 -3.39649,0.61132 -3.5918,-0.0605 -1.79296,-1.67774 -1.76563,-2.66406 -0.25195,-0.38867 z"
     style="fill:#fefefe;stroke:none;stroke-width:0.89758795;stroke-miterlimit:22.92560005" /><path
     sodipodi:nodetypes="ccsccscsccsccccccccsccccccccccsccccsccscccscccccccscccccscccccccssccccccccccccsccscccssccccccsccssccccsscscccsccccccccccccccscccccccscccscscscccccscccccccssccccccssccsssscsccccccc"
     inkscape:connector-curvature="0"
     transform="scale(26.458333)"
     id="path78"
     d="m 527.71663,375.66028 c 1.37317,1.94353 3.04991,3.90614 5.43181,6.37683 0.60619,5.95238 1.24523,11.06164 1.88281,15.54297 0.63758,4.48132 1.27501,8.33451 1.87891,11.77734 1.20779,6.88567 2.28219,12.128 2.96484,17.45508 0.34133,2.66354 0.58483,5.34875 0.69727,8.27148 0.11244,2.92274 0.0936,6.08277 -0.0879,9.69727 -0.18152,3.6145 -0.52587,7.68306 -1.06641,12.42187 -0.54054,4.73882 -1.27756,10.14766 -2.24219,16.44336 -0.33335,2.17663 -2.04534,18.2435 -1.90625,18.49219 0.47386,0.84865 1.03503,1.51008 1.66797,2.01758 0.63294,0.5075 1.33605,0.86158 2.09375,1.0957 0.7577,0.23413 1.56983,0.34844 2.41797,0.37696 0.84814,0.0285 1.73247,-0.0293 2.63672,-0.13868 1.8085,-0.21866 3.69641,-0.64433 5.52344,-1.00781 1.82702,-0.36348 3.5931,-0.66468 5.16406,-0.63086 l -0.45703,3.03125 51.51953,7.78516 c 0.99505,0.15023 2.05895,0.25186 3.13672,0.27344 1.07776,0.0216 2.16972,-0.037 3.22461,-0.20508 1.05489,-0.16805 2.0716,-0.44659 2.99804,-0.86524 0.92644,-0.41864 1.76267,-0.97682 2.45508,-1.70703 l 7.46484,-7.87304 c 0.64593,-0.68108 1.23922,-1.16034 1.82813,-1.5 0.58891,-0.33967 1.17409,-0.5383 1.80664,-0.65821 1.2651,-0.23981 2.71813,-0.1632 4.76172,-0.2539 l 2.0332,2.5664 c 0.14615,0.9171 0.36508,1.76007 0.65039,2.53516 0.28532,0.77509 0.63784,1.48186 1.04688,2.12695 0.81808,1.29019 1.86751,2.33348 3.08789,3.17578 1.22038,0.84231 2.61018,1.48407 4.10937,1.97461 1.49919,0.49054 3.10721,0.82956 4.76172,1.06446 3.30903,0.46979 6.80475,0.52485 9.99414,0.54882 3.18939,0.024 6.07244,0.0161 8.1543,0.36329 1.35817,1.00828 2.46712,2.06144 3.38086,3.17382 0.91373,1.11239 1.63363,2.28517 2.21289,3.5293 0.57926,1.24413 1.0183,2.55939 1.37305,3.96289 0.35474,1.4035 0.62504,2.89386 0.86523,4.48438 0.17376,1.15096 0.4438,2.06472 0.78125,2.80273 0.33745,0.73801 0.74117,1.30087 1.18359,1.74805 0.88486,0.89435 1.92052,1.32934 2.87305,1.79297 0.47627,0.23181 0.93276,0.47004 1.33789,0.77734 0.40513,0.30729 0.75988,0.68262 1.03516,1.1875 0.27528,0.50488 0.46991,1.14027 0.55664,1.96484 0.0867,0.82458 0.0648,1.83909 -0.0957,3.10547 -0.30303,2.38989 -0.69846,3.78789 -1.0918,4.76953 -0.39334,0.98165 -0.78311,1.54787 -1.07227,2.27149 -0.28915,0.72361 -0.47826,1.6049 -0.46875,3.2207 0.01,1.6158 0.21608,3.96484 0.71875,7.62305 0.34177,2.48627 0.77147,4.31618 1.26563,5.73828 0.49415,1.42209 1.05326,2.43687 1.6582,3.29492 0.60494,0.85805 1.25558,1.55939 1.92969,2.35352 0.67411,0.79412 1.37255,1.68177 2.07422,2.91211 0.29017,1.56467 0.45581,3.06679 0.53711,4.52343 0.0813,1.45665 0.077,2.86751 0.0293,4.24414 -0.0954,2.75328 -0.36804,5.37323 -0.5,7.97461 -0.066,1.30069 -0.0974,2.5976 -0.0527,3.90235 0.0447,1.30475 0.16508,2.61824 0.40039,3.95508 0.23531,1.33683 0.58601,2.69681 1.0918,4.09374 0.50578,1.39694 1.16728,2.83135 2.02343,4.31641 0.8504,1.47501 1.45409,2.98007 1.90235,4.47852 0.44825,1.49844 0.74136,2.98926 0.96679,4.4375 0.45088,2.89646 0.63399,5.61933 1.26954,7.87304 0.31777,1.12686 0.74988,2.1365 1.38281,2.99219 0.63293,0.8557 1.4683,1.55748 2.5957,2.06836 1.1274,0.51088 2.54646,0.83141 4.34766,0.92383 1.80119,0.0924 3.98436,-0.0437 6.63867,-0.44336 3.67106,-0.55266 6.72922,-1.19033 9.46289,-1.93945 2.73367,-0.74913 5.14234,-1.60891 7.50977,-2.60547 4.73485,-1.99314 9.3091,-4.53156 16.00586,-7.82031 0.60656,-0.29778 1.20523,-0.4968 1.79687,-0.60743 0.59164,-0.11062 1.17544,-0.13396 1.75391,-0.0801 1.15693,0.10776 2.2896,0.52242 3.40429,1.15234 1.1147,0.62992 2.21045,1.47441 3.29688,2.44531 1.08643,0.97091 2.16224,2.0685 3.23437,3.19922 2.14427,2.26143 4.27441,4.66097 6.44532,6.47461 1.08545,0.90682 2.18185,1.66634 3.29492,2.18945 1.11306,0.52312 2.24379,0.80934 3.39844,0.76758 1.17618,-0.56376 2.20171,-1.35126 3.10351,-2.31641 0.9018,-0.96515 1.67999,-2.10814 2.35742,-3.38281 0.67744,-1.27467 1.25472,-2.6815 1.75782,-4.17383 0.50309,-1.49232 0.93177,-3.06939 1.31054,-4.6875 0.75754,-3.23622 1.31659,-6.63214 1.87696,-9.82031 0.56036,-3.18817 1.12139,-6.16902 1.88476,-8.57422 0.61909,-1.95085 1.32644,-3.53354 2.10156,-4.83984 0.77513,-1.3063 1.61909,-2.33647 2.51172,-3.18359 0.89264,-0.84713 1.83307,-1.51067 2.80469,-2.08399 0.97162,-0.57332 1.97424,-1.05614 2.98633,-1.54101 1.01208,-0.48488 2.0348,-0.97093 3.04883,-1.55274 1.01402,-0.58181 2.01865,-1.25893 2.99609,-2.12305 0.97744,-0.86411 1.92775,-1.91626 2.83008,-3.24804 0.90233,-1.33179 1.75623,-2.94291 2.54492,-4.92774 0.69019,-1.73674 1.2028,-3.35642 1.60156,-4.87304 0.39876,-1.51663 0.68408,-2.93055 0.92383,-4.26172 0.4795,-2.66234 0.77417,-4.98868 1.41211,-7.11719 0.31897,-1.06426 0.72405,-2.07971 1.28125,-3.0625 0.5572,-0.9828 1.2655,-1.93314 2.19336,-2.86914 0.92786,-0.936 2.07493,-1.85739 3.50586,-2.78125 1.43093,-0.92386 3.14648,-1.85048 5.21289,-2.79688 6.2331,-2.85458 10.04766,-4.83365 12.47461,-6.37109 1.21347,-0.76872 2.08048,-1.42796 2.72851,-2.0293 0.64804,-0.60133 1.07797,-1.14561 1.41797,-1.6875 0.68001,-1.08378 0.99991,-2.15679 1.99219,-3.65039 0.49614,-0.7468 1.16078,-1.59822 2.12109,-2.60937 0.96032,-1.01116 2.21655,-2.18101 3.89844,-3.56446 1.15767,-0.95244 7.2788,-4.84772 13.5332,-8.7207 6.25441,-3.87298 12.64208,-7.72364 14.33399,-8.5918 2.04912,-1.05155 3.76808,-2.0143 5.22461,-2.91796 1.45653,-0.90367 2.65211,-1.74808 3.65234,-2.56836 1.00024,-0.82029 1.8061,-1.61654 2.48633,-2.41797 0.68023,-0.80143 1.23396,-1.60799 1.73047,-2.45508 0.99302,-1.69417 1.75418,-3.54468 2.83008,-5.80859 1.0759,-2.26392 2.46574,-4.94122 4.71484,-8.29102 0.75345,-1.12205 1.67738,-2.18687 2.6582,-3.22656 0.98083,-1.03969 2.01839,-2.05559 3.00586,-3.08008 0.98748,-1.02449 1.92389,-2.05832 2.69727,-3.13477 0.77338,-1.07644 1.3841,-2.19506 1.72266,-3.39062 0.27411,-0.96728 0.35411,-2.06485 0.35742,-3.20899 0.003,-1.14414 -0.0689,-2.33521 -0.10157,-3.48828 -0.0327,-1.15306 -0.0255,-2.26767 0.14063,-3.26172 0.16611,-0.99404 0.49013,-1.86807 1.08984,-2.53515 0.91597,-1.0184 1.98124,-1.62675 3.08203,-2.09571 1.1008,-0.46895 2.23652,-0.79817 3.29493,-1.25781 0.5292,-0.22982 1.03962,-0.49155 1.51562,-0.82031 0.47601,-0.32876 0.9181,-0.72353 1.3125,-1.21875 0.3944,-0.49522 0.741,-1.09112 1.02539,-1.82031 0.2844,-0.72919 0.50636,-1.59237 0.65235,-2.62305 0.40327,-2.84674 0.36792,-5.83136 0.57031,-8.76758 0.1012,-1.46811 0.26173,-2.92346 0.5664,-4.34375 0.30468,-1.42028 0.75435,-2.80519 1.43165,-4.13086 0.72614,-1.42138 1.62035,-2.50501 2.59765,-3.41797 0.97731,-0.91295 2.03805,-1.65608 3.0957,-2.40039 1.05766,-0.7443 2.11289,-1.48884 3.08008,-2.40429 0.9672,-0.91546 1.84486,-2.00134 2.55078,-3.42774 0.74948,-1.51436 1.21974,-3.07798 1.53711,-4.66015 0.31738,-1.58218 0.48196,-3.18288 0.6211,-4.77149 0.13913,-1.5886 0.25399,-3.16556 0.46875,-4.69922 0.21476,-1.53365 0.52996,-3.02408 1.07422,-4.4414 0.46082,-1.19944 1.7508,-3.15571 3.50195,-5.44141 1.75115,-2.2857 3.96386,-4.90097 6.27344,-7.41797 2.30957,-2.517 4.71546,-4.93674 6.85156,-6.83008 1.06805,-0.94667 2.06763,-1.76017 2.95508,-2.39062 0.88744,-0.63045 1.66199,-1.0778 2.27734,-1.28516 2.07813,-0.7003 3.89128,-1.41961 5.46875,-2.17773 1.57747,-0.75813 2.92018,-1.55397 4.05469,-2.4043 1.1345,-0.85032 2.06132,-1.75552 2.81055,-2.73242 0.74922,-0.9769 1.32054,-2.02622 1.74218,-3.16406 0.42164,-1.13784 0.69396,-2.36412 0.84571,-3.69727 0.15174,-1.33315 0.18351,-2.7731 0.12304,-4.33594 -0.12092,-3.12567 -0.6088,-6.74544 -1.23242,-10.99609 -0.30179,-2.05739 -0.36615,-3.92704 -0.26562,-5.64844 0.10052,-1.7214 0.36546,-3.2936 0.7207,-4.75195 0.71049,-2.91671 1.78324,-5.38139 2.62695,-7.68359 0.42186,-1.15111 0.78578,-2.2603 1.01953,-3.36719 0.23375,-1.1069 0.33634,-2.21008 0.23438,-3.34571 -0.10196,-1.13562 -0.40886,-2.3037 -0.99414,-3.54101 -0.58528,-1.23731 -1.44786,-2.54509 -2.66406,-3.95703 -0.77632,-0.90123 -2.73054,-2.23894 -5.30079,-3.75781 -2.57024,-1.51888 -5.75685,-3.21884 -9.00195,-4.84375 -3.2451,-1.62492 -6.54872,-3.17519 -9.34961,-4.39454 -2.80089,-1.21934 -5.09833,-2.10798 -6.33594,-2.41015 -5.33754,-1.30243 -10.68653,-2.95393 -15.97851,-4.91016 -5.29198,-1.95622 -10.52847,-4.21631 -15.64453,-6.73437 -5.11607,-2.51807 -10.11012,-5.29331 -14.91992,-8.28125 -4.80981,-2.98794 -9.4354,-6.18883 -13.8086,-9.55469 -0.87468,-0.67318 -1.90954,-1.09076 -3.06445,-1.33594 -1.15492,-0.24517 -2.4294,-0.31793 -3.78516,-0.30078 -2.71151,0.0343 -5.74472,0.4281 -8.7832,0.51758 -1.51924,0.0447 -3.0396,0.0142 -4.52149,-0.17578 -1.48188,-0.18999 -2.92588,-0.54045 -4.29101,-1.13086 -1.36513,-0.59041 -2.65133,-1.42161 -3.82031,-2.57813 -0.58449,-0.57825 -1.1396,-1.23743 -1.66016,-1.98828 -0.52056,-0.75085 -1.00641,-1.59296 -1.45312,-2.53711 l 12.93164,-13.62695 -0.92383,-2.15039 -20.17969,1.23242 -2.32422,-19.26367 -52.2603,-5.63239 z"
     style="fill:#3088c7;stroke-width:0.0448794" /><path
     class="fil0"
     d="m 16815.46,13082.2 c 61.87,388.24 621.18,275.19 841.51,311.93 143.74,106.71 181.77,232.53 207.19,400.86 36.78,243.62 237,85.92 203.02,353.97 -32.07,252.93 -103.84,86.05 -50.64,473.21 36.17,263.13 109,248.08 183.26,378.29 61.42,331.19 -87.83,559.05 93.39,873.39 180,312.21 -56.39,675.44 505.44,590.84 388.52,-58.49 518.18,-153.17 872.55,-327.2 256.78,-126.06 460.06,420.06 704.46,411.22 248.96,-119.33 244.43,-617.39 325.22,-871.94 131.04,-412.93 410.5,-201.67 577.44,-621.79 146.09,-367.61 -10.62,-534.18 426.77,-734.5 659.67,-302.11 295.77,-234.04 651.77,-526.87 61.26,-50.4 647.79,-412.12 737.32,-458.06 433.73,-222.58 308.04,-292.63 546.07,-647.15 79.74,-118.75 230.97,-212.96 266.8,-339.49 29.01,-102.37 -24.15,-259.95 39.32,-330.55 96.94,-107.78 257.05,-42.1 287.95,-260.26 21.34,-150.64 -3.75,-315.92 67.93,-456.22 76.85,-150.43 224.94,-157.28 299.65,-308.24 79.32,-160.27 40.31,-341.39 97.91,-491.39 48.77,-126.94 448.12,-574.29 578.37,-618.18 439.87,-148.23 431.43,-330.87 365.43,-780.73 -63.88,-435.48 275.36,-555.61 17.93,-854.47 -82.16,-95.38 -662.47,-375.64 -793.45,-407.62 -564.89,-137.84 -1133.93,-423.8 -1596.76,-780.02 -185.14,-142.49 -641.16,147.54 -830.27,-252.15 l 342.18,-360.51 -24.46,-56.9 -533.94,32.57 -61.48,-509.67 -1382.71,-149.02 -33.4,-87.4 398.46,-476.28 59.25,45.62 22.74,-747.33 c -258.01,42.41 -547.47,840.57 -1068.31,780.58 -132.98,-69.35 -193.62,-589.19 -694.66,-179.32 -258.29,211.32 -638.34,138.06 -896.94,-4.38 -110.95,-61.11 -333.47,-105.28 -390.59,-168.44 -239.11,-264.33 -58.82,-95.5 -364.42,-207.74 -308.89,-113.43 -508.55,-405.13 -809.95,-196.28 -330.42,228.97 -771.3,103.26 -871.86,192.14 -41.75,36.9 -366.98,626.4 -443.41,686.51 -96.52,75.92 -687.73,295.14 -733.11,253.9 -91.76,-83.38 -229.48,-191.45 -285.26,-298.4 -53.91,-103.35 -42.03,-366.09 -191.74,-226.72 l -44.94,20.59 488.54,1113.9 54.45,-23.67 c -139.42,164.68 -39.24,-250.06 -327.5,660.46 -41.26,130.3 -81.79,260.03 -126.05,388.5 -51.04,148.2 183.86,413.82 2.77,323.4 l -633.53,1268.45 443.76,438.26 c -110.84,224.91 -832.23,160.15 -228.7,786.18 128.31,1259.92 310.74,1091.23 106.56,2423.82 -8.82,57.59 -54.15,482.69 -50.47,489.27 100.3,179.63 349.82,41.74 516.08,45.32 l -12.13,80.22 1363.15,205.97 c 105.31,15.9 239.3,11.02 312.58,-66.26 l 197.53,-208.28 c 68.36,-72.08 114,-59.02 222.14,-63.82 z"
     id="path21"
     inkscape:connector-curvature="0"
     style="fill:none" /><polygon
     class="fil4 str1"
     points="22081.93,11245.54 21385.59,10741.66 22245.12,10743.31 22509.15,9925.35 22773.19,10743.31 23632.71,10741.66 22936.37,11245.54 23203.55,12062.48 22509.15,11555.93 21814.75,12062.48 "
     id="polygon23"
     style="fill:#ffcc29;stroke:#ffcc29;stroke-width:20;stroke-miterlimit:22.92560005" /><path
     class="fil5"
     d="m 14943.33,12685.29 v -2470.01 c 0,-305.75 92.5,-554.98 278.34,-749.39 185.86,-193.56 426.51,-290.34 722.84,-290.34 351.16,0 620.93,161.01 810.21,482.19 115.62,-173.87 239.81,-297.19 371.7,-370.85 132.75,-74.51 295.48,-111.34 489.9,-111.34 308.32,0 544.69,96.78 709.14,290.34 163.58,194.41 245.8,472.76 245.8,837.61 v 2381.79 h -1017.47 v -2229.35 c 0,-107.91 -8.56,-179.85 -26.55,-214.96 -17.99,-35.12 -53.96,-53.1 -108.77,-53.1 -101.92,0 -152.45,83.93 -152.45,250.94 v 2246.47 h -1017.46 v -2229.35 c 0,-106.19 -9.43,-178.14 -27.4,-214.11 -18.85,-35.97 -54.83,-53.95 -108.78,-53.95 -101.06,0 -151.59,89.07 -151.59,268.06 v 2229.35 z m 5852.99,-3442.94 v 978.07 c -73.65,-21.41 -131.04,-32.54 -170.43,-32.54 -77.09,0 -143.89,28.26 -198.7,85.64 -55.66,56.53 -83.07,125.05 -83.07,205.55 0,68.52 29.97,155.02 90.78,260.36 l 77.94,135.32 c 141.31,244.09 211.54,479.61 211.54,707.43 0,332.3 -118.19,614.08 -355.43,844.47 -237.23,230.38 -526.72,346 -868.44,346 -164.44,0 -326.31,-38.54 -487.32,-114.77 v -991.76 c 96.78,62.52 183.28,94.21 258.65,94.21 89.07,0 162.72,-25.7 222.68,-76.23 59.09,-51.39 89.07,-115.63 89.07,-192.7 0,-49.68 -47.11,-159.3 -142.17,-328.02 -151.6,-268.07 -227.82,-535.29 -227.82,-803.36 0,-322.87 114.76,-601.23 345.15,-834.18 229.52,-233.81 504.45,-350.29 823.91,-350.29 140.45,0 278.34,22.27 413.66,66.8 z"
     id="path25"
     inkscape:connector-curvature="0"
     style="fill:#fefefe;fill-rule:nonzero" /><path
     d="m 408.14258,260.62695 c -12.39421,0 -25.80898,3.38458 -34.84961,9.69336 l 9.33203,19.84766 c 5.39528,-4.46211 13.85344,-7.23047 21.43555,-7.23047 10.93644,0 16.33224,4.76968 16.76953,13.23242 h -15.74805 c -24.49701,0 -35.14258,9.53895 -35.14258,24.92578 0,14.46388 10.49886,25.69727 29.45508,25.69727 11.51962,0 19.39295,-4.15499 23.33008,-12.15625 v 10.77148 h 25.81055 v -46.31445 c 0,-26.46576 -14.72883,-38.4668 -40.39258,-38.4668 z m 0.73047,50.77539 h 11.95703 v 7.23243 c -2.18721,6.61606 -7.58306,9.69335 -13.70703,9.69335 -6.56164,0 -10.35352,-3.5393 -10.35352,-8.46289 0,-5.07779 3.20878,-8.46289 12.10352,-8.46289 z m 77.48633,84.875 c -12.39421,0 -25.80898,3.38458 -34.84961,9.69336 l 9.33203,19.84961 c 5.39527,-4.46211 13.85343,-7.23242 21.43554,-7.23242 10.93644,0 16.33224,4.76968 16.76954,13.23242 h -15.74805 c -24.49701,0 -35.14258,9.5409 -35.14258,24.92774 0,14.46387 10.49886,25.69531 29.45508,25.69531 11.51962,0 19.39294,-4.15304 23.33008,-12.1543 v 10.76953 h 25.81054 v -46.31445 c 0,-26.46576 -14.72883,-38.4668 -40.39257,-38.4668 z m 0.73046,50.77735 h 11.95704 v 7.23047 c -2.18722,6.61606 -7.58307,9.69531 -13.70704,9.69531 -6.56163,0 -10.35351,-3.5393 -10.35351,-8.46289 0,-5.0778 3.20877,-8.46289 12.10351,-8.46289 z M 279.40385,345.09997 v -91.03899 c 0,-5.77021 1.48724,-10.36044 4.46211,-13.74576 2.97486,-3.38495 6.94979,-5.07742 11.89908,-5.07742 4.10306,0 7.61651,1.17959 10.56567,3.51307 2.94917,2.33386 6.23169,6.82167 9.82186,13.43811 l 14.15622,25.54205 c 2.94917,5.35975 5.28265,9.87326 6.94942,13.51483 1.69285,3.66728 3.02627,7.0269 4.02633,10.12989 -0.58961,-6.59074 -1.05146,-12.59187 -1.38482,-17.95162 -0.33335,-5.33405 -0.48718,-9.4628 -0.48718,-12.30954 v -33.56901 h 25.85008 v 94.62954 c 0,4.35931 -1.23099,7.87276 -3.71868,10.56567 -2.48768,2.69254 -5.7445,4.05166 -9.82186,4.05166 -3.43634,0 -6.38551,-0.89764 -8.82179,-2.69254 -2.43629,-1.79528 -5.0778,-5.28302 -7.92416,-10.41184 l -21.00321,-37.85159 c -0.43616,-0.82092 -1.12857,-2.02621 -2.02583,-3.69298 -4.64202,-8.36032 -7.87313,-15.10488 -9.61701,-20.2851 1.00007,7.18072 1.74388,13.69436 2.20536,19.56699 0.48756,5.89833 0.71811,11.41191 0.71811,16.56642 v 37.10816 z m 138.18255,135.888 v -80.06929 h 25.55754 v 80.06929 z M 415.64523,379.2703 c 0,-4.04409 1.42904,-7.4948 4.31358,-10.32529 2.88453,-2.83086 6.33562,-4.2599 10.40617,-4.2599 4.07093,0 7.52202,1.42904 10.40655,4.2599 2.88454,2.83049 4.31358,6.2812 4.31358,10.32529 0,4.07093 -1.42904,7.52164 -4.31358,10.37934 -2.88453,2.88454 -6.33562,4.31358 -10.40655,4.31358 -4.07055,0 -7.52164,-1.42904 -10.40617,-4.31358 -2.88454,-2.8577 -4.31358,-6.30841 -4.31358,-10.37934 z m -4.16012,-11.34992 v 66.48189 c 0,7.279 -0.26986,12.56315 -0.83603,15.8521 -0.53896,3.28894 -1.4555,6.33524 -2.72278,9.11206 -3.26211,7.11723 -8.14185,12.75175 -14.69291,16.87673 -6.52422,4.12459 -13.80321,6.20069 -21.86381,6.20069 -11.70066,0 -21.32485,-3.88233 -28.90054,-11.64662 -7.57568,-7.79111 -11.37675,-17.71237 -11.37675,-29.76302 0,-12.02381 3.80107,-21.91786 11.37675,-29.70935 7.57569,-7.79112 17.22709,-11.70029 28.92737,-11.70029 1.56359,0 3.28895,0.10772 5.1224,0.32353 1.8599,0.21581 3.80107,0.51213 5.84995,0.94375 v 26.25827 c -2.10293,-0.67389 -3.99005,-1.1864 -5.66135,-1.48271 -1.67169,-0.32353 -3.12718,-0.48529 -4.39446,-0.48529 -4.79887,0 -8.5731,1.42866 -11.34992,4.25952 -2.77682,2.83087 -4.15181,6.71282 -4.15181,11.59257 0,4.87975 1.32132,8.7617 3.99004,11.59257 2.64227,2.83049 6.22753,4.25952 10.70287,4.25952 4.8257,0 8.51906,-1.53675 11.08044,-4.58305 2.56101,-3.0463 3.82829,-7.44076 3.82829,-13.15616 v -71.22671 z m -73.55377,-5.17606 -24.69505,29.27773 H 302.0213 l 15.5554,-29.27773 z M 302.0213,480.98797 v -80.06929 h 25.55754 v 80.06929 z m -133.05298,0 12.23962,-91.55414 c 0.94337,-7.41354 3.26173,-13.15616 6.95546,-17.19987 3.69336,-4.07093 8.38413,-6.09298 14.12674,-6.09298 5.44555,0 9.97493,1.7794 13.66829,5.36504 3.69335,3.58564 6.36245,8.78854 7.98009,15.63628 l 7.41355,31.35383 c 0.75515,3.01947 1.37499,6.33562 1.91433,10.00177 0.51212,3.66651 0.97058,7.84554 1.34778,12.53631 0.35074,-4.69077 0.80882,-8.8698 1.32094,-12.53631 0.53934,-3.66615 1.15956,-6.9823 1.91433,-10.00177 l 7.41392,-31.35383 c 1.64448,-6.84774 4.28637,-12.05064 7.97972,-15.63628 3.69373,-3.58564 8.27679,-5.36504 13.74954,-5.36504 5.74224,0 10.43301,2.02205 14.09953,6.09298 3.63969,4.04371 5.95805,9.78633 6.9018,17.19987 l 12.32012,91.55414 h -27.01304 l -6.30841,-70.68737 c -0.32352,-3.69335 -0.62022,-7.27899 -0.8897,-10.78374 -0.24264,-3.50476 -0.45845,-6.87459 -0.62022,-10.08303 -0.8897,4.74482 -1.64447,8.6812 -2.23748,11.78155 -0.62022,3.09996 -1.21323,5.87678 -1.7794,8.2764 l -11.78117,54.99704 c -1.37499,6.25474 -3.20844,10.75692 -5.55363,13.42564 -2.34558,2.69594 -5.52681,4.0441 -9.51685,4.0441 -3.96284,0 -7.11723,-1.34816 -9.46281,-4.0441 -2.31836,-2.66872 -4.17864,-7.1709 -5.55363,-13.42564 L 207.7629,409.49178 c -0.7011,-3.31615 -1.968,-9.59773 -3.80145,-18.87155 l -0.24264,-1.1864 c 0,5.28416 -0.37758,11.61978 -1.10514,19.03332 -0.10809,0.86287 -0.16176,1.45588 -0.16176,1.83345 l -6.30879,70.68737 z"
     style="fill:#3088c7;fill-opacity:1;fill-rule:nonzero;stroke-width:0.03779528"
     transform="scale(26.458333)"
     id="path50"
     inkscape:connector-curvature="0" /></g>
<path
   style="clip-rule:evenodd;fill:none;fill-rule:evenodd;stroke-width:1.00000012;image-rendering:optimizeQuality;shape-rendering:geometricPrecision;text-rendering:geometricPrecision"
   inkscape:connector-curvature="0"
   id="path21-5"
   d="m -25066.14,8336.7885 c 61.87,388.24 621.18,275.19 841.51,311.93 143.74,106.71 181.77,232.53 207.19,400.86 36.78,243.62 237,85.92 203.02,353.97 -32.07,252.93 -103.84,86.05 -50.64,473.21 36.17,263.1305 109,248.0805 183.26,378.2905 61.42,331.19 -87.83,559.051 93.39,873.39 180,312.211 -56.39,675.441 505.44,590.841 388.52,-58.49 518.18,-153.17 872.55,-327.2 256.78,-126.06 460.06,420.06 704.46,411.22 248.96,-119.33 244.43,-617.39 325.22,-871.94 131.04,-412.93 410.5,-201.67 577.44,-621.791 146.091,-367.6105 -10.62,-534.1805 426.771,-734.5005 659.67,-302.11 295.77,-234.04 651.77,-526.87 61.26,-50.4 647.79,-412.12 737.32,-458.06 433.73,-222.58 308.04,-292.63 546.07,-647.15 79.74,-118.75 230.97,-212.96 266.8,-339.49 29.01,-102.37 -24.15,-259.95 39.32,-330.55 96.94,-107.78 257.05,-42.1 287.95,-260.26 21.34,-150.64 -3.75,-315.92 67.93,-456.22 76.85,-150.43 224.94,-157.28 299.65,-308.24 79.32,-160.27 40.31,-341.39 97.91,-491.3899 48.77,-126.94 448.12,-574.2901 578.37,-618.1802 439.87,-148.2299 431.43,-330.8699 365.43,-780.7301 -63.88,-435.4801 275.36,-555.6099 17.93,-854.47 -82.16,-95.38 -662.47,-375.6401 -793.45,-407.62 -564.89,-137.84 -1133.93,-423.8001 -1596.76,-780.0202 -185.14,-142.49 -641.161,147.5401 -830.27,-252.15 l 342.18,-360.51 -24.46,-56.9001 -533.941,32.5701 -61.479,-509.6701 -1382.711,-149.02 -33.4,-87.39996 398.46,-476.2801 59.25,45.62 22.74,-747.3301 c -258.01,42.41 -547.47,840.5701 -1068.31,780.5801 -132.98,-69.35 -193.62,-589.190102 -694.66,-179.3201 -258.29,211.3201 -638.34,138.0601 -896.94,-4.38 -110.95,-61.11 -333.47,-105.28 -390.59,-168.44 -239.11,-264.330002 -58.82,-95.500002 -364.42,-207.740002 -308.89,-113.429998 -508.55,-405.129998 -809.95,-196.279998 -330.42,228.9699981 -771.3,103.26 -871.86,192.139998 -41.75,36.9000001 -366.98,626.400102 -443.41,686.510102 -96.52,75.92 -687.73,295.1401 -733.11,253.9 -91.76,-83.38 -229.48,-191.45 -285.26,-298.4 -53.91,-103.35 -42.03,-366.0901 -191.74,-226.72 l -44.94,20.59 488.54,1113.90006 54.45,-23.67 c -139.42,164.6801 -39.24,-250.06 -327.5,660.4601 -41.26,130.3 -81.79,260.0299 -126.05,388.5 -51.04,148.2 183.86,413.8202 2.77,323.4002 l -633.53,1268.45 443.76,438.2601 c -110.84,224.9101 -832.23,160.1499 -228.7,786.18 128.31,1259.9201 310.74,1091.2301 106.56,2423.8201 -8.82,57.59 -54.15,482.69 -50.47,489.27 100.3,179.63 349.82,41.74 516.08,45.32 l -12.13,80.22 1363.15,205.97 c 105.31,15.9 239.3,11.02 312.58,-66.26 l 197.53,-208.28 c 68.36,-72.08 114,-59.02 222.14,-63.82 z"
   class="fil0" /></svg>